<svg viewBox="0 0 487.3 118.74" xmlns="http://www.w3.org/2000/svg"><g fill="#fff"><path d="m0 0h21.13v36.2h10.56l36.76-36.2h26.48l-43.1 43.24 48.08 43.62h-27.98l-38.69-35.68h-12.58v35.68h-20.66z"/><path d="m109.68 0v63.99s2.32 22.87 21.13 22.87h49.86v-16.32l-43.48-.19s-6.95-.28-6.95-13.62v-56.73z"/><path d="m260.86 73.64v-36.62c0-17.09-22.34-16.16-22.34-16.16h-43.01v14.09s32.86.37 40.75.37 6.95 3.76 6.95 3.76v6.94h-34.37c-17.84 0-20.28 13.53-20.28 13.53v12.77c0 12.77 12.4 14.53 12.4 14.53h46.38c14.09 0 13.52-13.22 13.52-13.22zm-25.92.57h-24.79s-3.38-1.13-3.38-6.95v-4.51s1.51-5.07 6.2-5.07h30.05v12.96s.57 3.57-8.07 3.57z"/><path d="m359.45 0h-64.98s-20.84 4.25-21.22 18.52 0 48.27 0 48.27 1.13 19.48 21.22 20.07c20.1.59 67.42 0 67.42 0s19.54-4.48 19.54-20.92v-41.22s-0-24.72-21.98-24.72zm1.51 62.28s-1.13 8.26-9.02 8.26h-51.08s-7.7-.57-7.7-10.33v-33.61s.57-9.95 9.95-9.95h48.65s9.2.37 9.2 7.51v38.13z"/><path d="m481.25 0h-69.3s-17.04 4.67-17.04 17.49v15.21s.85 16.2 20.28 17.47l47.04 1.69s5.35-.85 4.79 7.32 0 5.07 0 5.07 0 6.25-5.21 6.29-66.91 0-66.91 0v16.57h76.25s16.15-4.28 16.15-17.38v-16.2s-.14-18.45-29.3-18.87-36.2-.85-36.2-.85-7.04.7-7.04-7.32 0-3.66 0-3.66-.28-6.2 6.06-6.2h60.57z"/><path d="m9.25 118.74c-1.19 0-2.3-.21-3.32-.64s-1.91-1.02-2.67-1.79-1.36-1.67-1.79-2.72-.64-2.2-.64-3.45.21-2.35.62-3.38.99-1.94 1.73-2.72 1.62-1.38 2.63-1.81 2.11-.64 3.3-.64c1.42 0 2.68.26 3.78.79 1.09.53 2.01 1.24 2.74 2.15.73.9 1.27 1.93 1.61 3.08h-2.94c-.2-.7-.53-1.34-1-1.9-.47-.57-1.06-1.01-1.77-1.34s-1.54-.49-2.49-.49c-1.09 0-2.05.26-2.9.78s-1.51 1.25-1.99 2.19c-.47.94-.71 2.06-.71 3.36 0 1.21.24 2.29.71 3.26.47.96 1.15 1.73 2.03 2.29s1.93.85 3.16.85c1.01 0 1.89-.19 2.65-.58s1.37-.94 1.85-1.65c.47-.71.79-1.53.94-2.47h-5.69v-2.02h8.35c.03 1.32-.15 2.52-.53 3.6-.38 1.09-.93 2.03-1.65 2.82-.72.8-1.59 1.4-2.6 1.82-1.02.42-2.15.63-3.41.63z"/><path d="m29.49 118.4h-2.52v-16.48h6.15c1.9 0 3.38.45 4.45 1.34 1.07.9 1.61 2.16 1.61 3.8 0 1.18-.35 2.2-1.06 3.05-.7.86-1.68 1.43-2.94 1.72l4.48 6.56h-3.03l-4.11-6.2h-3.03v6.2zm0-14.37v6.06h3.47c1.16 0 2.07-.26 2.71-.77s.96-1.27.96-2.26-.32-1.75-.96-2.26-1.55-.77-2.71-.77z"/><path d="m56.21 118.74c-1.19 0-2.3-.22-3.32-.65-1.02-.44-1.9-1.04-2.66-1.83s-1.35-1.69-1.77-2.74-.63-2.18-.63-3.39.21-2.33.63-3.37 1.01-1.95 1.77-2.72 1.64-1.38 2.66-1.81c1.02-.44 2.12-.65 3.32-.65s2.3.22 3.32.65c1.02.44 1.9 1.04 2.66 1.81s1.35 1.68 1.77 2.72.63 2.17.63 3.37-.21 2.34-.63 3.39-1.01 1.96-1.77 2.74-1.65 1.39-2.66 1.83c-1.02.44-2.12.65-3.32.65zm0-2.27c.87 0 1.66-.16 2.36-.48s1.31-.77 1.83-1.35c.51-.58.9-1.26 1.17-2.03s.4-1.6.4-2.47-.13-1.69-.4-2.46c-.27-.76-.66-1.43-1.17-2.01-.51-.57-1.12-1.02-1.83-1.34s-1.49-.48-2.36-.48-1.66.16-2.36.48-1.31.77-1.83 1.34-.9 1.24-1.17 2.01-.4 1.58-.4 2.46.13 1.7.4 2.47.66 1.45 1.17 2.03 1.12 1.03 1.83 1.35c.7.32 1.49.48 2.36.48z"/><path d="m86.07 118.4-3.49-12.92-3.51 12.92h-2.59l-4.29-16.48h2.48l3.17 12.69 3.46-12.69h2.62l3.42 12.72 3.17-12.72h2.48l-4.29 16.48h-2.62z"/><path d="m108.65 118.4h-2.52v-14.21h-5.37v-2.27h13.27v2.27h-5.37v14.21z"/><path d="m125.66 118.4h-2.52v-16.48h2.52v6.89h8.35v-6.89h2.53v16.48h-2.53v-7.39h-8.35z"/><path d="m166.1 118.74c-1.19 0-2.3-.22-3.32-.65-1.02-.44-1.9-1.04-2.66-1.83s-1.35-1.69-1.77-2.74-.63-2.18-.63-3.39.21-2.33.63-3.37 1.01-1.95 1.77-2.72 1.64-1.38 2.66-1.81c1.02-.44 2.12-.65 3.32-.65s2.3.22 3.32.65c1.02.44 1.9 1.04 2.66 1.81s1.35 1.68 1.77 2.72.63 2.17.63 3.37-.21 2.34-.63 3.39-1.01 1.96-1.77 2.74-1.65 1.39-2.66 1.83c-1.02.44-2.12.65-3.32.65zm0-2.27c.87 0 1.66-.16 2.36-.48s1.31-.77 1.83-1.35c.51-.58.9-1.26 1.17-2.03s.4-1.6.4-2.47-.13-1.69-.4-2.46c-.27-.76-.66-1.43-1.17-2.01-.51-.57-1.12-1.02-1.83-1.34s-1.49-.48-2.36-.48-1.66.16-2.36.48-1.31.77-1.83 1.34-.9 1.24-1.17 2.01-.4 1.58-.4 2.46.13 1.7.4 2.47.66 1.45 1.17 2.03 1.12 1.03 1.83 1.35c.7.32 1.49.48 2.36.48z"/><path d="m189.69 112.66h-3.19v5.74h-2.52v-16.48h5.71c1.22 0 2.29.2 3.2.61s1.62 1 2.12 1.79.76 1.76.76 2.93-.25 2.12-.76 2.93c-.5.8-1.21 1.42-2.12 1.85s-1.98.64-3.2.64zm-.02-8.61h-3.17v6.47h3.17c1.12 0 1.99-.29 2.63-.87.63-.58.95-1.38.95-2.39s-.32-1.82-.95-2.38c-.64-.56-1.51-.84-2.63-.84z"/><path d="m215.63 116.19v2.2h-10.44v-16.48h10.28v2.2h-7.76v4.68h7.07v2.2h-7.07v5.19h7.92z"/><path d="m228 118.4h-2.52v-16.48h6.15c1.9 0 3.38.45 4.45 1.34 1.07.9 1.61 2.16 1.61 3.8 0 1.18-.35 2.2-1.06 3.05-.7.86-1.68 1.43-2.94 1.72l4.48 6.56h-3.03l-4.11-6.2h-3.03v6.2zm0-14.37v6.06h3.47c1.16 0 2.07-.26 2.71-.77s.96-1.27.96-2.26-.32-1.75-.96-2.26-1.55-.77-2.71-.77z"/><path d="m258.59 118.4-5.03-13.72-5.09 13.72h-2.55l6.31-16.48h2.78l6.27 16.48zm-8.81-6.13h7.67l.69 2.04h-9.2l.85-2.04z"/><path d="m275.48 118.4h-2.52v-14.21h-5.37v-2.27h13.27v2.27h-5.37v14.21z"/><path d="m292.49 118.4h-2.52v-16.48h2.52z"/><path d="m310.37 118.74c-1.19 0-2.3-.22-3.32-.65-1.02-.44-1.9-1.04-2.66-1.83s-1.35-1.69-1.77-2.74-.63-2.18-.63-3.39.21-2.33.63-3.37 1.01-1.95 1.77-2.72 1.64-1.38 2.66-1.81c1.02-.44 2.12-.65 3.32-.65s2.3.22 3.32.65c1.02.44 1.9 1.04 2.66 1.81s1.35 1.68 1.77 2.72.63 2.17.63 3.37-.21 2.34-.63 3.39-1.01 1.96-1.77 2.74-1.65 1.39-2.66 1.83c-1.02.44-2.12.65-3.32.65zm0-2.27c.87 0 1.66-.16 2.36-.48s1.31-.77 1.83-1.35c.51-.58.9-1.26 1.17-2.03s.4-1.6.4-2.47-.13-1.69-.4-2.46c-.27-.76-.66-1.43-1.17-2.01-.51-.57-1.12-1.02-1.83-1.34s-1.49-.48-2.36-.48-1.66.16-2.36.48-1.31.77-1.83 1.34-.9 1.24-1.17 2.01-.4 1.58-.4 2.46.13 1.7.4 2.47.66 1.45 1.17 2.03 1.12 1.03 1.83 1.35c.7.32 1.49.48 2.36.48z"/><path d="m339.27 118.4-8.68-12.88v12.88h-2.34v-16.48h2.75l8.47 12.53v-12.53h2.34v16.48h-2.55z"/><path d="m375.99 113.58c0 .95-.25 1.8-.75 2.57-.5.76-1.21 1.37-2.15 1.81-.93.44-2.07.67-3.4.67s-2.47-.23-3.43-.68-1.7-1.09-2.24-1.92-.84-1.78-.92-2.87h2.57c.06 1.04.42 1.88 1.09 2.5.67.63 1.62.94 2.88.94.7 0 1.33-.11 1.88-.32s.98-.52 1.3-.92c.31-.4.47-.88.47-1.45 0-.69-.23-1.22-.69-1.61s-1.16-.67-2.11-.87l-2.39-.46c-.58-.12-1.14-.29-1.66-.5-.53-.21-1-.49-1.42-.84-.42-.34-.75-.77-.99-1.29s-.36-1.11-.36-1.8c0-.93.25-1.77.75-2.5s1.19-1.31 2.07-1.73 1.89-.63 3.04-.63 2.18.22 3.09.67c.91.44 1.64 1.06 2.2 1.86.56.79.87 1.74.93 2.85h-2.57c-.05-.66-.23-1.24-.54-1.74s-.73-.9-1.25-1.18-1.13-.42-1.84-.42-1.3.13-1.79.38-.86.58-1.12.99-.39.85-.39 1.32c0 .52.13.94.4 1.25s.62.56 1.07.75c.44.18.92.33 1.42.44l2.43.48c1.42.29 2.51.77 3.27 1.42.76.66 1.14 1.61 1.14 2.85z"/><path d="m391.69 112.22v6.17h-2.55v-6.17l-5.92-10.31h2.75l4.52 7.94 4.57-7.94h2.57z"/><path d="m417.74 113.58c0 .95-.25 1.8-.75 2.57-.5.76-1.21 1.37-2.15 1.81-.93.44-2.07.67-3.4.67s-2.47-.23-3.43-.68-1.7-1.09-2.24-1.92-.84-1.78-.92-2.87h2.57c.06 1.04.42 1.88 1.09 2.5.67.63 1.62.94 2.88.94.7 0 1.33-.11 1.88-.32s.98-.52 1.3-.92c.31-.4.47-.88.47-1.45 0-.69-.23-1.22-.69-1.61s-1.16-.67-2.11-.87l-2.39-.46c-.58-.12-1.14-.29-1.66-.5-.53-.21-1-.49-1.42-.84-.42-.34-.75-.77-.99-1.29s-.36-1.11-.36-1.8c0-.93.25-1.77.75-2.5s1.19-1.31 2.07-1.73 1.89-.63 3.04-.63 2.18.22 3.09.67c.91.44 1.64 1.06 2.2 1.86.56.79.87 1.74.93 2.85h-2.57c-.05-.66-.23-1.24-.54-1.74s-.73-.9-1.25-1.18-1.13-.42-1.84-.42-1.3.13-1.79.38-.86.58-1.12.99-.39.85-.39 1.32c0 .52.13.94.4 1.25s.62.56 1.07.75c.44.18.92.33 1.42.44l2.43.48c1.42.29 2.51.77 3.27 1.42.76.66 1.14 1.61 1.14 2.85z"/><path d="m433.51 118.4h-2.52v-14.21h-5.37v-2.27h13.27v2.27h-5.37v14.21z"/><path d="m458.43 116.19v2.2h-10.44v-16.48h10.28v2.2h-7.76v4.68h7.07v2.2h-7.07v5.19h7.92z"/><path d="m475.81 118.4-5.21-12.6v12.6h-2.32v-16.48h3.1l5.53 13.38 5.51-13.38h3.12v16.48h-2.34v-12.62l-5.23 12.62z"/></g></svg>